<svg xmlns="http://www.w3.org/2000/svg" viewBox="0 0 512 512" fill="none">
  <rect width="512" height="512" rx="96" fill="#0a0a0a"/>
  <rect x="24" y="24" width="464" height="464" rx="76" fill="#111111" stroke="#1e293b" stroke-width="2"/>
  <!-- Document shape -->
  <rect x="128" y="96" width="256" height="320" rx="16" fill="#1a1a2e" stroke="#2563eb" stroke-width="3"/>
  <!-- Markdown lines -->
  <rect x="168" y="152" width="120" height="12" rx="6" fill="#2563eb"/>
  <rect x="168" y="184" width="176" height="8" rx="4" fill="#334155"/>
  <rect x="168" y="208" width="160" height="8" rx="4" fill="#334155"/>
  <rect x="168" y="232" width="140" height="8" rx="4" fill="#334155"/>
  <rect x="168" y="268" width="100" height="12" rx="6" fill="#2563eb" opacity="0.7"/>
  <rect x="168" y="300" width="176" height="8" rx="4" fill="#334155"/>
  <rect x="168" y="324" width="152" height="8" rx="4" fill="#334155"/>
  <!-- Share/link arrow -->
  <g transform="translate(340, 310)">
    <circle cx="32" cy="32" r="40" fill="#2563eb" opacity="0.15"/>
    <circle cx="32" cy="32" r="32" fill="#2563eb"/>
    <path d="M22 38L36 26M36 26H26M36 26V36" stroke="white" stroke-width="3.5" stroke-linecap="round" stroke-linejoin="round"/>
  </g>
</svg>
